<svg width="250" height="88" viewBox="0 0 250 88" fill="none" xmlns="http://www.w3.org/2000/svg">
<path d="M110.86 26.4C110.992 26.4 111.106 26.448 111.202 26.544C111.298 26.64 111.346 26.754 111.346 26.886V29.784C111.346 29.916 111.298 30.03 111.202 30.126C111.106 30.222 110.992 30.27 110.86 30.27H106.99V38.514C106.99 38.646 106.942 38.76 106.846 38.856C106.75 38.952 106.636 39 106.504 39H102.796C102.664 39 102.55 38.952 102.454 38.856C102.358 38.76 102.31 38.646 102.31 38.514V30.27H98.44C98.308 30.27 98.194 30.222 98.098 30.126C98.002 30.03 97.954 29.916 97.954 29.784V26.886C97.954 26.754 98.002 26.64 98.098 26.544C98.194 26.448 98.308 26.4 98.44 26.4H110.86ZM121.779 26.4C122.907 26.4 123.891 26.592 124.731 26.976C125.571 27.36 126.213 27.882 126.657 28.542C127.101 29.202 127.323 29.94 127.323 30.756C127.323 32.1 126.903 33.156 126.063 33.924C125.223 34.68 123.795 35.058 121.779 35.058H119.403V38.514C119.403 38.646 119.355 38.76 119.259 38.856C119.163 38.952 119.049 39 118.917 39H115.047C114.915 39 114.801 38.952 114.705 38.856C114.609 38.76 114.561 38.646 114.561 38.514V26.886C114.561 26.754 114.609 26.64 114.705 26.544C114.801 26.448 114.915 26.4 115.047 26.4H121.779ZM121.707 31.728C121.995 31.728 122.223 31.644 122.391 31.476C122.559 31.296 122.643 31.062 122.643 30.774C122.643 30.474 122.559 30.228 122.391 30.036C122.223 29.844 121.995 29.748 121.707 29.748H119.421V31.728H121.707ZM141.932 33.798C141.932 35.634 141.32 36.99 140.096 37.866C138.884 38.742 137.264 39.18 135.236 39.18C133.208 39.18 131.582 38.742 130.358 37.866C129.146 36.99 128.54 35.622 128.54 33.762V31.638C128.54 30.414 128.828 29.4 129.404 28.596C129.992 27.78 130.79 27.18 131.798 26.796C132.806 26.412 133.952 26.22 135.236 26.22C136.52 26.22 137.66 26.412 138.656 26.796C139.664 27.18 140.462 27.774 141.05 28.578C141.638 29.382 141.932 30.39 141.932 31.602V33.798ZM133.4 34.14C133.4 34.632 133.562 35.01 133.886 35.274C134.222 35.538 134.672 35.67 135.236 35.67C135.8 35.67 136.244 35.538 136.568 35.274C136.904 34.998 137.072 34.614 137.072 34.122V31.278C137.072 30.786 136.904 30.408 136.568 30.144C136.244 29.868 135.8 29.73 135.236 29.73C134.672 29.73 134.222 29.862 133.886 30.126C133.562 30.39 133.4 30.768 133.4 31.26V34.14ZM156.739 26.4C156.871 26.4 156.985 26.448 157.081 26.544C157.177 26.64 157.225 26.754 157.225 26.886V29.784C157.225 29.916 157.177 30.03 157.081 30.126C156.985 30.222 156.871 30.27 156.739 30.27H152.869V38.514C152.869 38.646 152.821 38.76 152.725 38.856C152.629 38.952 152.515 39 152.383 39H148.675C148.543 39 148.429 38.952 148.333 38.856C148.237 38.76 148.189 38.646 148.189 38.514V30.27H144.319C144.187 30.27 144.073 30.222 143.977 30.126C143.881 30.03 143.833 29.916 143.833 29.784V26.886C143.833 26.754 143.881 26.64 143.977 26.544C144.073 26.448 144.187 26.4 144.319 26.4H156.739ZM172.284 26.4C172.404 26.4 172.5 26.442 172.572 26.526C172.656 26.598 172.698 26.682 172.698 26.778C172.698 26.886 172.662 27.024 172.59 27.192L168.702 35.328C168.222 36.336 167.778 37.092 167.37 37.596C166.962 38.1 166.458 38.46 165.858 38.676C165.27 38.892 164.46 39 163.428 39H161.358C161.226 39 161.112 38.952 161.016 38.856C160.92 38.76 160.872 38.646 160.872 38.514V35.634C160.872 35.502 160.92 35.388 161.016 35.292C161.112 35.196 161.226 35.148 161.358 35.148H162.816C163.128 35.148 163.398 35.1 163.626 35.004L159.234 26.958C159.198 26.898 159.18 26.838 159.18 26.778C159.18 26.67 159.222 26.58 159.306 26.508C159.402 26.436 159.522 26.4 159.666 26.4H163.608C163.752 26.4 163.866 26.436 163.95 26.508C164.034 26.58 164.112 26.688 164.184 26.832L165.948 30.666L167.73 26.832C167.862 26.544 168.066 26.4 168.342 26.4H172.284ZM178.523 38.388C178.367 38.796 178.097 39 177.713 39H174.311C174.203 39 174.107 38.964 174.023 38.892C173.951 38.808 173.915 38.712 173.915 38.604L173.933 38.496L177.857 26.994C177.905 26.838 177.995 26.7 178.127 26.58C178.259 26.46 178.439 26.4 178.667 26.4H183.671C183.899 26.4 184.079 26.46 184.211 26.58C184.343 26.7 184.433 26.838 184.481 26.994L188.405 38.496L188.423 38.604C188.423 38.712 188.381 38.808 188.297 38.892C188.225 38.964 188.135 39 188.027 39H184.625C184.241 39 183.971 38.796 183.815 38.388L183.365 37.128H178.973L178.523 38.388ZM181.169 29.874L179.891 33.618H182.447L181.169 29.874ZM198.244 26.4C199.372 26.4 200.356 26.592 201.196 26.976C202.036 27.36 202.678 27.882 203.122 28.542C203.566 29.202 203.788 29.94 203.788 30.756C203.788 32.1 203.368 33.156 202.528 33.924C201.688 34.68 200.26 35.058 198.244 35.058H195.868V38.514C195.868 38.646 195.82 38.76 195.724 38.856C195.628 38.952 195.514 39 195.382 39H191.512C191.38 39 191.266 38.952 191.17 38.856C191.074 38.76 191.026 38.646 191.026 38.514V26.886C191.026 26.754 191.074 26.64 191.17 26.544C191.266 26.448 191.38 26.4 191.512 26.4H198.244ZM198.172 31.728C198.46 31.728 198.688 31.644 198.856 31.476C199.024 31.296 199.108 31.062 199.108 30.774C199.108 30.474 199.024 30.228 198.856 30.036C198.688 29.844 198.46 29.748 198.172 29.748H195.886V31.728H198.172ZM217.695 26.4C217.827 26.4 217.941 26.448 218.037 26.544C218.133 26.64 218.181 26.754 218.181 26.886V38.514C218.181 38.646 218.133 38.76 218.037 38.856C217.941 38.952 217.827 39 217.695 39H213.987C213.855 39 213.741 38.952 213.645 38.856C213.549 38.76 213.501 38.646 213.501 38.514V34.68H209.901V38.514C209.901 38.646 209.853 38.76 209.757 38.856C209.661 38.952 209.547 39 209.415 39H205.707C205.575 39 205.461 38.958 205.365 38.874C205.269 38.778 205.221 38.658 205.221 38.514V26.886C205.221 26.754 205.269 26.64 205.365 26.544C205.461 26.448 205.575 26.4 205.707 26.4H209.415C209.547 26.4 209.661 26.448 209.757 26.544C209.853 26.64 209.901 26.754 209.901 26.886V30.576H213.501V26.886C213.501 26.754 213.549 26.64 213.645 26.544C213.741 26.448 213.855 26.4 213.987 26.4H217.695ZM224.402 38.388C224.246 38.796 223.976 39 223.592 39H220.19C220.082 39 219.986 38.964 219.902 38.892C219.83 38.808 219.794 38.712 219.794 38.604L219.812 38.496L223.736 26.994C223.784 26.838 223.874 26.7 224.006 26.58C224.138 26.46 224.318 26.4 224.546 26.4H229.55C229.778 26.4 229.958 26.46 230.09 26.58C230.222 26.7 230.312 26.838 230.36 26.994L234.284 38.496L234.302 38.604C234.302 38.712 234.26 38.808 234.176 38.892C234.104 38.964 234.014 39 233.906 39H230.504C230.12 39 229.85 38.796 229.694 38.388L229.244 37.128H224.852L224.402 38.388ZM227.048 29.874L225.77 33.618H228.326L227.048 29.874ZM247.813 26.4C247.945 26.4 248.059 26.448 248.155 26.544C248.251 26.64 248.299 26.754 248.299 26.886V38.514C248.299 38.646 248.251 38.76 248.155 38.856C248.059 38.952 247.945 39 247.813 39H243.925C243.793 39 243.679 38.952 243.583 38.856C243.487 38.76 243.439 38.646 243.439 38.514V34.986H242.269L240.703 38.55C240.643 38.682 240.541 38.79 240.397 38.874C240.265 38.958 240.115 39 239.947 39H235.861C235.753 39 235.657 38.964 235.573 38.892C235.501 38.808 235.465 38.712 235.465 38.604C235.465 38.544 235.477 38.49 235.501 38.442L237.661 34.428C236.989 34.104 236.455 33.642 236.059 33.042C235.663 32.442 235.465 31.68 235.465 30.756C235.465 29.868 235.681 29.094 236.113 28.434C236.545 27.774 237.163 27.27 237.967 26.922C238.783 26.574 239.731 26.4 240.811 26.4H247.813ZM243.439 29.748H241.189C240.913 29.748 240.703 29.85 240.559 30.054C240.427 30.246 240.361 30.474 240.361 30.738C240.361 31.002 240.433 31.224 240.577 31.404C240.721 31.572 240.925 31.656 241.189 31.656H243.439V29.748ZM110.464 48.4C110.596 48.4 110.71 48.448 110.806 48.544C110.902 48.64 110.95 48.754 110.95 48.886V60.514C110.95 60.646 110.902 60.76 110.806 60.856C110.71 60.952 110.596 61 110.464 61H106.936C106.804 61 106.69 60.952 106.594 60.856C106.498 60.76 106.45 60.646 106.45 60.514V52.288H102.85V60.514C102.85 60.646 102.802 60.76 102.706 60.856C102.61 60.952 102.496 61 102.364 61H98.836C98.704 61 98.59 60.958 98.494 60.874C98.398 60.778 98.35 60.658 98.35 60.514V48.886C98.35 48.754 98.398 48.64 98.494 48.544C98.59 48.448 98.704 48.4 98.836 48.4H110.464ZM113.463 61.18C113.331 61.18 113.211 61.132 113.103 61.036C113.007 60.94 112.959 60.826 112.959 60.694V57.814C112.959 57.682 113.007 57.568 113.103 57.472C113.199 57.376 113.313 57.328 113.445 57.328C113.877 57.328 114.207 56.824 114.435 55.816C114.663 54.808 114.777 53.35 114.777 51.442V48.886C114.777 48.754 114.825 48.64 114.921 48.544C115.017 48.448 115.131 48.4 115.263 48.4H125.487C125.619 48.4 125.733 48.448 125.829 48.544C125.925 48.64 125.973 48.754 125.973 48.886V60.514C125.973 60.646 125.925 60.76 125.829 60.856C125.733 60.952 125.619 61 125.487 61H122.139C122.007 61 121.893 60.952 121.797 60.856C121.701 60.76 121.653 60.646 121.653 60.514V52.27H118.917V53.188C118.917 55.948 118.455 57.97 117.531 59.254C116.607 60.538 115.251 61.18 113.463 61.18ZM132.842 48.4C132.974 48.4 133.088 48.448 133.184 48.544C133.28 48.64 133.328 48.754 133.328 48.886V54.718L137.252 48.76C137.432 48.52 137.666 48.4 137.954 48.4H140.87C141.002 48.4 141.116 48.448 141.212 48.544C141.308 48.64 141.356 48.754 141.356 48.886V60.514C141.356 60.646 141.308 60.76 141.212 60.856C141.116 60.952 141.002 61 140.87 61H137.522C137.39 61 137.276 60.952 137.18 60.856C137.084 60.76 137.036 60.646 137.036 60.514V55.078L133.112 60.622C132.92 60.874 132.68 61 132.392 61H129.494C129.362 61 129.248 60.952 129.152 60.856C129.056 60.76 129.008 60.646 129.008 60.514V48.886C129.008 48.754 129.056 48.64 129.152 48.544C129.248 48.448 129.362 48.4 129.494 48.4H132.842ZM156.739 48.4C156.871 48.4 156.985 48.448 157.081 48.544C157.177 48.64 157.225 48.754 157.225 48.886V51.784C157.225 51.916 157.177 52.03 157.081 52.126C156.985 52.222 156.871 52.27 156.739 52.27H152.869V60.514C152.869 60.646 152.821 60.76 152.725 60.856C152.629 60.952 152.515 61 152.383 61H148.675C148.543 61 148.429 60.952 148.333 60.856C148.237 60.76 148.189 60.646 148.189 60.514V52.27H144.319C144.187 52.27 144.073 52.222 143.977 52.126C143.881 52.03 143.833 51.916 143.833 51.784V48.886C143.833 48.754 143.881 48.64 143.977 48.544C144.073 48.448 144.187 48.4 144.319 48.4H156.739ZM173.256 60.37C173.304 60.442 173.328 60.52 173.328 60.604C173.328 60.712 173.286 60.808 173.202 60.892C173.13 60.964 173.04 61 172.932 61H168.288C168.012 61 167.796 60.904 167.64 60.712L164.868 56.698H164.328V60.514C164.328 60.646 164.28 60.76 164.184 60.856C164.088 60.952 163.974 61 163.842 61H160.134C160.002 61 159.888 60.952 159.792 60.856C159.696 60.76 159.648 60.646 159.648 60.514V48.886C159.648 48.754 159.696 48.64 159.792 48.544C159.888 48.448 160.002 48.4 160.134 48.4H163.842C163.974 48.4 164.088 48.448 164.184 48.544C164.28 48.64 164.328 48.754 164.328 48.886V52.594H164.724L167.352 48.706C167.532 48.502 167.754 48.4 168.018 48.4H172.356C172.464 48.4 172.554 48.442 172.626 48.526C172.71 48.598 172.752 48.688 172.752 48.796C172.752 48.892 172.722 48.976 172.662 49.048L168.396 54.25L173.256 60.37ZM178.523 60.388C178.367 60.796 178.097 61 177.713 61H174.311C174.203 61 174.107 60.964 174.023 60.892C173.951 60.808 173.915 60.712 173.915 60.604L173.933 60.496L177.857 48.994C177.905 48.838 177.995 48.7 178.127 48.58C178.259 48.46 178.439 48.4 178.667 48.4H183.671C183.899 48.4 184.079 48.46 184.211 48.58C184.343 48.7 184.433 48.838 184.481 48.994L188.405 60.496L188.423 60.604C188.423 60.712 188.381 60.808 188.297 60.892C188.225 60.964 188.135 61 188.027 61H184.625C184.241 61 183.971 60.796 183.815 60.388L183.365 59.128H178.973L178.523 60.388ZM181.169 51.874L179.891 55.618H182.447L181.169 51.874Z" fill="white"/>
<rect x="13.6523" y="30.2264" width="42.7467" height="16.5615" transform="rotate(-45 13.6523 30.2264)" fill="#FFA452"/>
<rect x="32.6758" y="75.4349" width="42.7467" height="16.5615" transform="rotate(-45 32.6758 75.4349)" fill="#FFA452"/>
<rect x="58.4863" y="13.8759" width="42.7467" height="16.5615" transform="rotate(45 58.4863 13.8759)" fill="white"/>
<rect x="11.7109" y="31.7802" width="42.7467" height="16.5615" transform="rotate(45 11.7109 31.7802)" fill="white"/>
</svg>
